<svg viewBox="0 0 108 108" xmlns="http://www.w3.org/2000/svg" role="img" aria-label="Verbatim round launcher icon">
  <circle cx="54" cy="54" r="54" fill="#2563EB" />
  <g transform="translate(15.84 11.52) scale(0.72)">
    <path d="M30 32H76C85 32 91 39 91 47V60C91 69 85 76 76 76H57L42 86C39 88 35 86 35 82V76H30C21 76 15 69 15 60V47C15 39 21 32 30 32Z" fill="#FFFFFF" />
    <g fill="#2563EB">
      <rect x="37" y="50" width="5" height="10" rx="2.5" />
      <rect x="46" y="44" width="5" height="22" rx="2.5" />
      <rect x="56" y="39" width="5" height="32" rx="2.5" />
      <rect x="65" y="44" width="5" height="22" rx="2.5" />
      <rect x="75" y="49" width="5" height="14" rx="2.5" />
    </g>
  </g>
</svg>
